<svg width="18" height="16" viewBox="0 0 18 16" fill="none" xmlns="http://www.w3.org/2000/svg">
<path id="Vector" d="M1.0819 6.73629C1.15555 6.72434 1.23009 6.71883 1.30466 6.71979H14.0033L13.7264 6.591C13.4557 6.4629 13.2095 6.28855 12.9987 6.07585L9.43773 2.51483C8.96874 2.06713 8.88994 1.34691 9.25099 0.808375C9.6712 0.234499 10.4771 0.109895 11.051 0.53011C11.0973 0.564078 11.1414 0.601105 11.1828 0.640949L17.6223 7.0804C18.1255 7.58308 18.126 8.39852 17.6233 8.90176L11.1828 15.3422C10.6792 15.8445 9.86374 15.8433 9.36146 15.3397C9.32194 15.3 9.28504 15.2579 9.25099 15.2134C8.88994 14.6749 8.96874 13.9547 9.43773 13.507L12.9923 9.93952C13.1813 9.75036 13.3985 9.59175 13.6363 9.46944L14.0226 9.29557H1.37554C0.717627 9.32 0.140411 8.86043 0.0168133 8.21374C-0.097044 7.51164 0.379799 6.85019 1.0819 6.73629Z" fill="white"/>
</svg>
