<svg width="18" height="16" viewBox="0 0 18 16" fill="none" xmlns="http://www.w3.org/2000/svg">
<path id="Vector" opacity="0.2" d="M16.9181 6.73629C16.8444 6.72434 16.7699 6.71883 16.6953 6.71979H3.9967L4.27359 6.591C4.54425 6.4629 4.79048 6.28855 5.00125 6.07585L8.56227 2.51483C9.03126 2.06713 9.11006 1.34691 8.74901 0.808375C8.3288 0.234499 7.52294 0.109895 6.94902 0.53011C6.90266 0.564078 6.85859 0.601105 6.81718 0.640949L0.377724 7.0804C-0.125519 7.58308 -0.125962 8.39852 0.376718 8.90176L6.81718 15.3422C7.32082 15.8445 8.13626 15.8433 8.63854 15.3397C8.67806 15.3 8.71496 15.2579 8.74901 15.2134C9.11006 14.6749 9.03126 13.9547 8.56227 13.507L5.00769 9.93952C4.81873 9.75036 4.60148 9.59175 4.36375 9.46944L3.97738 9.29557H16.6245C17.2824 9.32 17.8596 8.86043 17.9832 8.21374C18.097 7.51164 17.6202 6.85019 16.9181 6.73629Z" fill="#3A3F6C"/>
</svg>
