<svg width="17" height="17" viewBox="0 0 17 17" fill="none" xmlns="http://www.w3.org/2000/svg">
<path d="M9.49666 8.50444L16.7838 1.21722C17.0651 0.945592 17.0729 0.497408 16.8013 0.216152C16.5296 -0.0651037 16.0815 -0.0729025 15.8002 0.198729C15.7943 0.204412 15.7885 0.21022 15.7828 0.216152L8.49555 7.50337L1.20837 0.216111C0.927113 -0.055521 0.478931 -0.0477222 0.207301 0.233533C-0.0576924 0.507903 -0.0576924 0.942854 0.207301 1.21722L7.49449 8.50444L0.207301 15.7917C-0.0691002 16.0681 -0.0691002 16.5163 0.207301 16.7927C0.483743 17.0691 0.931925 17.0691 1.20837 16.7927L8.49555 9.50551L15.7827 16.7927C16.064 17.0644 16.5122 17.0566 16.7838 16.7753C17.0488 16.5009 17.0488 16.066 16.7838 15.7917L9.49666 8.50444Z" fill="#3A3F6C"/>
</svg>
