<svg width="112" height="112" viewBox="0 0 112 112" fill="none" xmlns="http://www.w3.org/2000/svg">
<g id="winner 1" clip-path="url(#clip0_649_1189)">
<path id="Vector" d="M92.5853 87.5138C94.1374 84.9022 95.4092 82.1343 96.3796 79.2553C104.673 79.5733 111.66 73.1205 112.001 64.8281C106.096 64.5892 100.598 67.8284 97.9473 73.1086C98.7642 68.5121 98.823 63.8117 98.1228 59.1959C105.623 56.928 110.13 49.2871 108.487 41.625C102.584 42.8978 98.0134 47.5733 96.8749 53.5022C96.2252 51.249 95.3963 49.0509 94.3965 46.9291L93.4436 44.9663C95.1859 37.7646 91.4256 30.3681 84.5814 27.5314C81.9689 33.8573 83.9519 41.15 89.4086 45.2824L91.0011 48.5565C92.4061 51.5311 93.4399 54.6665 94.0777 57.8929C91.3392 52.6513 85.7852 49.4975 79.8801 49.8329C80.3387 57.7578 86.876 63.9624 94.8137 64.0075C95.0398 69.556 94.0804 75.088 91.9999 80.2358C91.1839 73.5046 85.9672 68.1491 79.2599 67.1567C78.1489 74.725 82.8915 81.9239 90.2843 83.8904C89.1421 86.0637 87.8041 88.1276 86.2869 90.0565C83.9023 93.0687 81.0913 95.7162 77.9421 97.917C81.5204 91.0572 79.3168 82.6021 72.8457 78.3612C68.4422 85.0869 70.1055 94.0851 76.6207 98.7918C74.0624 100.444 71.3212 101.792 68.4514 102.81C67.5839 103.114 67.0629 103.998 67.2173 104.904C67.3716 105.809 68.1573 106.47 69.0763 106.469C69.2885 106.469 69.4999 106.432 69.7011 106.361C72.2493 105.455 74.7066 104.312 77.0406 102.945C81.4671 109.58 90.3018 111.607 97.1781 107.566C93.8277 101.873 87.1572 99.028 80.7292 100.552C83.6367 98.4307 86.2686 95.956 88.5641 93.1836C95.6352 96.6507 104.183 94.0814 108.172 87.2914C103.34 84.4611 97.3353 84.5465 92.5853 87.5138Z" fill="#DFE0EC"/>
<path id="Vector_2" d="M64.5672 28.9632C64.0856 27.4884 64.6113 25.872 65.8674 24.9604L76.3175 17.3691H63.4001C61.8489 17.37 60.4733 16.3702 59.9955 14.8944L56.0036 2.61011L52.0127 14.8962C51.5339 16.3711 50.1592 17.37 48.6081 17.3691H35.6897L46.1426 24.9622C47.3978 25.8738 47.9225 27.4911 47.441 28.9651L43.4492 41.2494L53.9002 33.6553C55.1536 32.7437 56.8527 32.7437 58.1061 33.6553L68.559 41.2512L64.5672 28.9632Z" fill="#8589A5"/>
<path id="Vector_3" d="M43.5565 102.81C40.6866 101.794 37.9455 100.448 35.3872 98.7983C41.9024 94.0906 43.5647 85.0924 39.1621 78.3667C32.6938 82.6076 30.4911 91.059 34.0657 97.917C30.9166 95.718 28.1055 93.0705 25.7209 90.0601C24.2028 88.1313 22.8649 86.0674 21.7236 83.8941C29.1164 81.9276 33.8581 74.7287 32.748 67.1603C26.0407 68.1528 20.8239 73.5083 20.007 80.2395C17.9238 75.0926 16.9617 69.5597 17.184 64.0112C25.1209 63.9615 31.6554 57.7597 32.1194 49.8366C26.2116 49.4985 20.6548 52.655 17.9201 57.903C18.5588 54.6776 19.5926 51.5449 20.9994 48.574L22.5984 45.2824C28.0559 41.15 30.039 33.8573 27.4265 27.5314C20.5832 30.369 16.8256 37.7664 18.5679 44.9663L17.6077 46.9438C16.6088 49.0601 15.7808 51.2536 15.133 53.5022C13.9935 47.5705 9.41906 42.8941 3.514 41.6232C1.87095 49.2834 6.37739 56.9234 13.8759 59.1914C13.1757 63.8081 13.2354 68.5084 14.0523 73.1049C11.4012 67.8247 5.90414 64.5855 0 64.8244C0.340005 73.1169 7.32757 79.5696 15.62 79.2516C16.5922 82.1297 17.864 84.8985 19.4161 87.5101C14.6662 84.5355 8.65726 84.4464 3.82 87.2785C7.80817 94.0731 16.3607 96.6434 23.4346 93.1744C25.7292 95.9496 28.361 98.4279 31.2694 100.552C24.8415 99.028 18.171 101.873 14.8205 107.566C21.6969 111.607 30.5306 109.58 34.958 102.945C37.2921 104.312 39.7493 105.455 42.2975 106.361C42.4979 106.432 42.7092 106.469 42.9224 106.469C43.8404 106.47 44.6261 105.809 44.7814 104.904C44.9358 103.998 44.4138 103.114 43.5473 102.81H43.5565Z" fill="#DFE0EC"/>
</g>
<defs>
<clipPath id="clip0_649_1189">
<rect width="112" height="112" fill="white"/>
</clipPath>
</defs>
</svg>
