<svg width="58" height="58" viewBox="0 0 58 58" fill="none" xmlns="http://www.w3.org/2000/svg">
<g id="networking (1) 1" clip-path="url(#clip0_649_1070)">
<g id="Group">
<g id="Group_2">
<path id="Vector" d="M36.2975 28.9999C36.2975 24.9708 33.0172 21.7024 29 21.7024C24.9828 21.7024 21.7025 24.9708 21.7025 28.9999C21.7025 33.029 24.9828 36.2975 29 36.2975C33.0172 36.2975 36.2975 33.029 36.2975 28.9999ZM29 33.445C26.5516 33.445 24.5549 31.4483 24.5549 28.9999C24.5549 26.5516 26.5516 24.5549 29 24.5549C31.4484 24.5549 33.4451 26.5516 33.4451 28.9999C33.4451 31.4483 31.4484 33.445 29 33.445Z" fill="#BCBED6"/>
<path id="Vector_2" d="M18.434 27.5737C17.6496 27.5737 17.0078 28.2155 17.0078 29C17.0078 29.7844 17.6496 30.4262 18.434 30.4262C19.2184 30.4262 19.8602 29.7844 19.8602 29C19.8602 28.2155 19.2184 27.5737 18.434 27.5737Z" fill="#3A3F6C"/>
<path id="Vector_3" d="M12.3369 29C12.3369 29.7844 12.9787 30.4262 13.7631 30.4262C14.5475 30.4262 15.1893 29.7844 15.1893 29C15.1893 28.2155 14.5475 27.5737 13.7631 27.5737C12.9787 27.5737 12.3369 28.2155 12.3369 29Z" fill="#3A3F6C"/>
<path id="Vector_4" d="M10.5184 29C10.5184 26.1 8.15328 23.7349 5.25328 23.7349C2.35328 23.7349 0 26.1 0 29C0 31.9 2.36516 34.2652 5.26516 34.2652C8.16516 34.2652 10.5184 31.9 10.5184 29ZM5.26516 31.4127C3.93402 31.4127 2.85246 30.3312 2.85246 29C2.85246 27.6689 3.93402 26.5873 5.26516 26.5873C6.59631 26.5873 7.67787 27.6689 7.67787 29C7.67787 30.3312 6.58443 31.4127 5.26516 31.4127Z" fill="#3A3F6C"/>
<path id="Vector_5" d="M44.2369 30.4262C45.0246 30.4262 45.6631 29.7877 45.6631 29C45.6631 28.2123 45.0246 27.5737 44.2369 27.5737C43.4492 27.5737 42.8107 28.2123 42.8107 29C42.8107 29.7877 43.4492 30.4262 44.2369 30.4262Z" fill="#3A3F6C"/>
<path id="Vector_6" d="M39.566 30.4262C40.3504 30.4262 40.9922 29.7844 40.9922 29C40.9922 28.2155 40.3504 27.5737 39.566 27.5737C38.7815 27.5737 38.1397 28.2155 38.1397 29C38.1397 29.7844 38.7815 30.4262 39.566 30.4262Z" fill="#3A3F6C"/>
<path id="Vector_7" d="M52.7348 23.7349C49.8348 23.7349 47.4697 26.1 47.4697 29C47.4697 31.9 49.8348 34.2652 52.7348 34.2652C55.6348 34.2652 58 31.9 58 29C58 26.1 55.6348 23.7349 52.7348 23.7349ZM52.7348 31.4127C51.4037 31.4127 50.3221 30.3312 50.3221 29C50.3221 27.6689 51.4037 26.5873 52.7348 26.5873C54.066 26.5873 55.1475 27.6689 55.1475 29C55.1475 30.3312 54.066 31.4127 52.7348 31.4127Z" fill="#3A3F6C"/>
<path id="Vector_8" d="M29 38.1396C28.2156 38.1396 27.5738 38.7815 27.5738 39.5659C27.5738 40.3503 28.2156 40.9921 29 40.9921C29.7844 40.9921 30.4262 40.3503 30.4262 39.5659C30.4262 38.7815 29.7844 38.1396 29 38.1396Z" fill="#3A3F6C"/>
<path id="Vector_9" d="M29 42.8105C28.2156 42.8105 27.5738 43.4523 27.5738 44.2368C27.5738 45.0212 28.2156 45.663 29 45.663C29.7844 45.663 30.4262 45.0212 30.4262 44.2368C30.4262 43.4523 29.7844 42.8105 29 42.8105Z" fill="#3A3F6C"/>
<path id="Vector_10" d="M29 47.4814C26.1 47.4814 23.7348 49.8466 23.7348 52.7466C23.7348 55.6466 26.1 57.9999 29 57.9999C31.9 57.9999 34.2652 55.6347 34.2652 52.7347C34.2652 49.8347 31.9 47.4814 29 47.4814ZM29 55.1474C27.6688 55.1474 26.5873 54.0659 26.5873 52.7347C26.5873 51.4036 27.6688 50.322 29 50.322C30.3311 50.322 31.4127 51.4036 31.4127 52.7347C31.4127 54.0659 30.3311 55.1474 29 55.1474Z" fill="#3A3F6C"/>
<path id="Vector_11" d="M29 19.8603C29.7844 19.8603 30.4262 19.2185 30.4262 18.434C30.4262 17.6496 29.7844 17.0078 29 17.0078C28.2156 17.0078 27.5738 17.6496 27.5738 18.434C27.5738 19.2185 28.2156 19.8603 29 19.8603Z" fill="#3A3F6C"/>
<path id="Vector_12" d="M29 15.1894C29.7877 15.1894 30.4262 14.5508 30.4262 13.7631C30.4262 12.9755 29.7877 12.3369 29 12.3369C28.2123 12.3369 27.5738 12.9755 27.5738 13.7631C27.5738 14.5508 28.2123 15.1894 29 15.1894Z" fill="#3A3F6C"/>
<path id="Vector_13" d="M29 10.5184C31.9 10.5184 34.2652 8.15328 34.2652 5.25328C34.2652 2.35328 31.9 0 29 0C26.1 0 23.7348 2.36516 23.7348 5.26516C23.7348 8.16516 26.1 10.5184 29 10.5184ZM29 2.85246C30.3311 2.85246 31.4127 3.93402 31.4127 5.26516C31.4127 6.59631 30.3311 7.67787 29 7.67787C27.6688 7.67787 26.5873 6.59631 26.5873 5.26516C26.5873 3.93402 27.6688 2.85246 29 2.85246Z" fill="#3A3F6C"/>
<path id="Vector_14" d="M20.5258 35.4656C19.9672 36.0242 19.9672 36.9275 20.5258 37.4861C21.0844 38.0447 21.9877 38.0447 22.5463 37.4861C23.1049 36.9275 23.1049 36.0242 22.5463 35.4656C21.9758 34.907 21.0725 34.907 20.5258 35.4656Z" fill="#3A3F6C"/>
<path id="Vector_15" d="M18.232 41.1943C19.0196 41.1943 19.6582 40.5557 19.6582 39.768C19.6582 38.9803 19.0196 38.3418 18.232 38.3418C17.4443 38.3418 16.8057 38.9803 16.8057 39.768C16.8057 40.5557 17.4443 41.1943 18.232 41.1943Z" fill="#3A3F6C"/>
<path id="Vector_16" d="M8.49795 42.062C6.4418 44.1182 6.4418 47.446 8.49795 49.5022C10.5541 51.5583 13.882 51.5583 15.9381 49.5022C17.9943 47.446 17.9943 44.1182 15.9381 42.062C13.882 40.0177 10.5422 40.0177 8.49795 42.062ZM13.9176 47.4936C12.9787 48.4325 11.4574 48.4325 10.5184 47.4936C9.57951 46.5546 9.57951 45.0333 10.5184 44.0944C11.4574 43.1554 12.9787 43.1554 13.9176 44.0944C14.8566 45.0214 14.8566 46.5546 13.9176 47.4936Z" fill="#3A3F6C"/>
<path id="Vector_17" d="M39.768 19.6581C40.5557 19.6581 41.1943 19.0196 41.1943 18.2319C41.1943 17.4442 40.5557 16.8057 39.768 16.8057C38.9803 16.8057 38.3418 17.4442 38.3418 18.2319C38.3418 19.0196 38.9803 19.6581 39.768 19.6581Z" fill="#3A3F6C"/>
<path id="Vector_18" d="M36.4758 22.9504C37.2635 22.9504 37.9021 22.3118 37.9021 21.5241C37.9021 20.7364 37.2635 20.0979 36.4758 20.0979C35.6881 20.0979 35.0496 20.7364 35.0496 21.5241C35.0496 22.3118 35.6881 22.9504 36.4758 22.9504Z" fill="#3A3F6C"/>
<path id="Vector_19" d="M49.5021 15.9381C51.5582 13.8819 51.5582 10.5541 49.5021 8.49792C47.4459 6.44177 44.118 6.44177 42.0619 8.49792C40.0057 10.5541 40.0057 13.8819 42.0619 15.9381C44.118 17.9942 47.4578 17.9823 49.5021 15.9381ZM44.0824 10.5065C45.0213 9.56759 46.5426 9.56759 47.4816 10.5065C48.4205 11.4455 48.4205 12.9668 47.4816 13.9057C46.5426 14.8446 45.0213 14.8446 44.0824 13.9057C43.1434 12.9787 43.1434 11.4455 44.0824 10.5065Z" fill="#3A3F6C"/>
<path id="Vector_20" d="M39.768 41.1943C40.5557 41.1943 41.1943 40.5557 41.1943 39.768C41.1943 38.9803 40.5557 38.3418 39.768 38.3418C38.9803 38.3418 38.3418 38.9803 38.3418 39.768C38.3418 40.5557 38.9803 41.1943 39.768 41.1943Z" fill="#3A3F6C"/>
<path id="Vector_21" d="M35.4656 35.4656C34.907 36.0242 34.907 36.9275 35.4656 37.4861C36.0242 38.0447 36.9275 38.0447 37.4861 37.4861C38.0447 36.9275 38.0447 36.0242 37.4861 35.4656C36.9275 34.907 36.0242 34.907 35.4656 35.4656Z" fill="#3A3F6C"/>
<path id="Vector_22" d="M42.0619 42.062C40.0057 44.1182 40.0057 47.446 42.0619 49.5022C44.118 51.5583 47.4459 51.5583 49.5021 49.5022C51.5582 47.446 51.5582 44.1182 49.5021 42.062C47.4578 40.0177 44.118 40.0177 42.0619 42.062ZM47.4934 47.4936C46.5545 48.4325 45.0332 48.4325 44.0943 47.4936C43.1553 46.5546 43.1553 45.0333 44.0943 44.0944C45.0332 43.1554 46.5545 43.1554 47.4934 44.0944C48.4324 45.0214 48.4324 46.5546 47.4934 47.4936Z" fill="#3A3F6C"/>
<path id="Vector_23" d="M21.5242 22.9504C22.3119 22.9504 22.9504 22.3118 22.9504 21.5241C22.9504 20.7364 22.3119 20.0979 21.5242 20.0979C20.7365 20.0979 20.098 20.7364 20.098 21.5241C20.098 22.3118 20.7365 22.9504 21.5242 22.9504Z" fill="#3A3F6C"/>
<path id="Vector_24" d="M18.232 19.6581C19.0196 19.6581 19.6582 19.0196 19.6582 18.2319C19.6582 17.4442 19.0196 16.8057 18.232 16.8057C17.4443 16.8057 16.8057 17.4442 16.8057 18.2319C16.8057 19.0196 17.4443 19.6581 18.232 19.6581Z" fill="#3A3F6C"/>
<path id="Vector_25" d="M15.9381 15.9381C17.9943 13.8819 17.9943 10.5541 15.9381 8.49792C13.882 6.44177 10.5541 6.44177 8.49795 8.49792C6.4418 10.5541 6.4418 13.8819 8.49795 15.9381C10.5422 17.9823 13.882 17.9823 15.9381 15.9381ZM10.5066 10.5065C11.4455 9.56759 12.9668 9.56759 13.9057 10.5065C14.8447 11.4455 14.8447 12.9668 13.9057 13.9057C12.9668 14.8446 11.4455 14.8446 10.5066 13.9057C9.56762 12.9787 9.56762 11.4455 10.5066 10.5065Z" fill="#3A3F6C"/>
</g>
</g>
</g>
<defs>
<clipPath id="clip0_649_1070">
<rect width="58" height="58" fill="white"/>
</clipPath>
</defs>
</svg>
