<svg width="81" height="81" viewBox="0 0 81 81" fill="none" xmlns="http://www.w3.org/2000/svg">
<g id="agreement 1" clip-path="url(#clip0_649_1111)">
<g id="Group">
<path id="Vector" d="M18.9815 31.0064C24.2161 31.0064 28.4749 26.7477 28.4749 21.5131C28.4749 16.2785 24.2161 12.0198 18.9815 12.0198C13.7469 12.0198 9.48819 16.2785 9.48819 21.5131C9.48819 26.7477 13.7469 31.0064 18.9815 31.0064ZM18.9815 16.7664C21.5988 16.7664 23.7282 18.8958 23.7282 21.5131C23.7282 24.1304 21.5988 26.2598 18.9815 26.2598C16.3642 26.2598 14.2349 24.1304 14.2349 21.5131C14.2349 18.8958 16.3642 16.7664 18.9815 16.7664Z" fill="#BCBED6"/>
<path id="Vector_2" d="M23.9234 60.3354L23.3784 59.97V60.6261V68.63H0.398288L3.94778 41.2447C3.94788 41.244 3.94799 41.2432 3.9481 41.2425C4.75861 35.577 9.61406 31.3568 15.3487 31.3568H16.6084C22.9584 31.3568 28.1251 36.5235 28.1251 42.8735C28.1251 46.9928 31.4758 50.3435 35.5951 50.3435H35.6157H35.6362H35.6568H35.6773H35.6978H35.7183H35.7388H35.7593H35.7798H35.8002H35.8207H35.8411H35.8615H35.8819H35.9023H35.9227H35.943H35.9634H35.9837H36.004H36.0243H36.0446H36.0649H36.0852H36.1055H36.1257H36.146H36.1662H36.1864H36.2066H36.2268H36.247H36.2671H36.2873H36.3074H36.3275H36.3477H36.3678H36.3878H36.4079H36.428H36.4481H36.4681H36.4881H36.5082H36.5282H36.5482H36.5682H36.5881H36.6081H36.6281H36.648H36.6679H36.6879H36.7078H36.7277H36.7476H36.7674H36.7873H36.8072H36.827H36.8469H36.8667H36.8865H36.9063H36.9261H36.9459H36.9656H36.9854H37.0052H37.0249H37.0446H37.0644H37.0841H37.1038H37.1235H37.1431H37.1628H37.1825H37.2021H37.2218H37.2414H37.261H37.2806H37.3002H37.3198H37.3394H37.359H37.3786H37.3981H37.4177H37.4372H37.4567H37.4762H37.4958H37.5153H37.5347H37.5542H37.5737H37.5932H37.6126H37.6321H37.6515H37.6709H37.6904H37.7098H37.7292H37.7486H37.768H37.7873H37.8067H37.8261H37.8454H37.8648H37.8841H37.9034H37.9228H37.9421H37.9614H37.9807H38H38.0192H38.0385H38.0578H38.077H38.0963H38.1155H38.1348H38.154H38.1732H38.1924H38.2116H38.2308H38.25H38.2692H38.2884H38.3075H38.3267H38.3459H38.365H38.3842H38.4033H38.4224H38.4415H38.4606H38.4798H38.4989H38.5179H38.537H38.5561H38.5752H38.5942H38.6133H38.6324H38.6514H38.6705H38.6895H38.7085H38.7275H38.7466H38.7656H38.7846H38.8036H38.8226H38.8416H38.8605H38.8795H38.8985H38.9174H38.9364H38.9554H38.9743H38.9932H39.0122H39.0311H39.05H39.069H39.0879H39.1068H39.1257H39.1446H39.1635H39.1824H39.2013H39.2201H39.239H39.2579H39.2768H39.2956H39.3145H39.3333H39.3522H39.371H39.3899H39.4087H39.4275H39.4463H39.4652H39.484H39.5028H39.5216H39.5404H39.5592H39.578H39.5968H39.6156H39.6344H39.6531H39.6719H39.6907H39.7095H39.7282H39.747H39.7657H39.7845H39.8032H39.822H39.8407H39.8595H39.8782H39.8969H39.9157H39.9344H39.9531H39.9719H39.9906H40.0093H40.028H40.0467H40.0654H40.0841H40.1028H40.1215H40.1402H40.1589H40.1776H40.1963H40.215H40.2337H40.2523H40.271H40.2897H40.3084H40.327H40.3457H40.3644H40.383H40.4017H40.4204H40.439H40.4577H40.4764H40.495H40.5137H40.5323H40.551H40.5696H40.5883H40.6069H40.6255H40.6442H40.6628H40.6815H40.7001H40.7188H40.7374H40.756H40.7747H40.7933H40.8119H40.8306H40.8492H40.8678H40.8864H40.9051H40.9237H40.9423H40.961H40.9796H40.9982H41.0168H41.0355H41.0541H41.0727H41.0913H41.11H41.1286H41.1472H41.1658H41.1845H41.2031H41.2217H41.2403H41.2589H41.2776H41.2962H41.3148H41.3334H41.3521H41.3707H41.3893H41.408H41.4266H41.4452H41.4638H41.4825H41.5011H41.5197H41.5384H41.557H41.5756H41.5943H41.6129H41.6315H41.6502H41.6688H41.6875H41.7061H41.7247H41.7434H41.762H41.7807H41.7993H41.818H41.8366H41.8553H41.8739H41.8926H41.9113H41.9299H41.9486H41.9672H41.9859H42.0046H42.0233H42.0419H42.0606H42.0793H42.098H42.1166H42.1353H42.154H42.1727H42.1914H42.2101H42.2288H42.2475H42.2662H42.2849H42.3036H42.3223H42.341H42.3597H42.3785H42.3972H42.4159H42.4346H42.4534H42.4721H42.4909H42.5096H42.5283H42.5471H42.5658H42.5846H42.6034H42.6221H42.6409H42.6597H42.6784H42.6972H42.716H42.7348H42.7536H42.7724H42.7912H42.81H42.8288H42.8476H42.8664H42.8852H42.904H42.9229H42.9417H42.9605H42.9794H42.9982H43.017H43.0359H43.0548H43.0736H43.0925H43.1114H43.1302H43.1491H43.168H43.1869H43.2058H43.2247H43.2436H43.2625H43.2814H43.3004H43.3193H43.3382H43.3572H43.3761H43.3951H43.414H43.433H43.4519H43.4709H43.4899H43.5089H43.5279H43.5469H43.5659H43.5849H43.6039H43.6229H43.6419H43.661H43.68H43.699H43.7181H43.7371H43.7562H43.7753H43.7944H43.8134H43.8325H43.8516H43.8707H43.8898H43.909H43.9281H43.9472H43.9663H43.9855H44.0046H44.0238H44.043H44.0621H44.0813H44.1005H44.1197H44.1389H44.1581H44.1773H44.1965H44.2158H44.235H44.2543H44.2735H44.2928H44.312H44.3313H44.3506H44.3699H44.3892H44.4085H44.4278H44.4471H44.4665H44.4858H44.5052H44.5245H44.5439H44.5633H44.5826H44.602H44.6214H44.6408H44.6603H44.6797H44.6991H44.7186H44.738H44.7575H44.7769H44.7964H44.8159H44.8354H44.8549H44.8744H44.8939H44.9135H44.933H44.9526H44.9721H44.9917H45.0113H45.0309H45.0504H45.0701H45.0897H45.1093H45.1289H45.1486H45.1682H45.1879H45.2076H45.2273H45.247H45.2667H45.2864H45.3061H45.3258H45.3456H45.3653H45.3851H45.4049C49.5242 50.3435 52.8749 46.9928 52.8749 42.8735C52.8749 36.5235 58.0416 31.3568 64.3916 31.3568H65.6513C71.3749 31.3568 76.2397 35.5659 77.0519 41.2422C77.052 41.2431 77.0521 41.2439 77.0522 41.2447L80.6017 68.6302H57.6216V60.6251V59.9689L57.0766 60.3344C53.7359 62.575 49.7209 63.8835 45.4049 63.8835H35.5951C31.2795 63.8835 27.2638 62.5753 23.9234 60.3354ZM73.0449 41.8074L73.0441 41.8022C72.5153 38.152 69.341 35.4033 65.6513 35.4033H64.3916C60.2723 35.4033 56.9216 38.7541 56.9216 42.8734C56.9216 49.2233 51.7549 54.39 45.4049 54.39H42.8733H42.5233V54.74V59.4867V59.8367H42.8733H45.4049C54.6418 59.8367 62.1777 52.4163 62.3647 43.2234H66.412C66.3323 48.079 64.5962 52.538 61.7461 56.0623L61.6682 56.1586V56.2824V64.2334V64.5834H62.0182H75.5986H75.9969L75.9457 64.1884L73.0449 41.8074ZM19.3318 56.2849V56.1611L19.2539 56.0648C16.4032 52.5403 14.6677 48.0798 14.588 43.2235H18.6353C18.8223 52.4165 26.3582 59.8369 35.5951 59.8369H38.1267H38.4767V59.4869V54.7402V54.3902H38.1267H35.5951C29.2451 54.3902 24.0784 49.2235 24.0784 42.8735C24.0784 38.7542 20.7277 35.4035 16.6084 35.4035H15.3487C11.659 35.4035 8.48472 38.1522 7.95585 41.8023L7.95581 41.8023L7.95514 41.8075L5.05445 64.1885L5.00326 64.5835H5.40155H18.9818H19.3318V64.2335V56.2849Z" fill="#3A3F6C" stroke="#254E7C" stroke-width="0.7"/>
<path id="Vector_3" d="M62.0186 31.0064C67.2533 31.0064 71.512 26.7477 71.512 21.5131C71.512 16.2785 67.2533 12.0198 62.0186 12.0198C56.784 12.0198 52.5253 16.2785 52.5253 21.5131C52.5253 26.7477 56.784 31.0064 62.0186 31.0064ZM62.0186 16.7664C64.6359 16.7664 66.7653 18.8958 66.7653 21.5131C66.7653 24.1304 64.6359 26.2598 62.0186 26.2598C59.4013 26.2598 57.272 24.1304 57.272 21.5131C57.272 18.8958 59.4013 16.7664 62.0186 16.7664Z" fill="#BCBED6"/>
</g>
</g>
<defs>
<clipPath id="clip0_649_1111">
<rect width="81" height="81" fill="white"/>
</clipPath>
</defs>
</svg>
