<svg width="60" height="60" viewBox="0 0 60 60" fill="none" xmlns="http://www.w3.org/2000/svg">
<g id="credit-card-machine 1" clip-path="url(#clip0_649_1119)">
<g id="Group">
<g id="Group_2">
<path id="Vector" d="M13.5938 22.6187H13.2437V22.9688V27.6562V28.0063H13.5938H27.6562H28.0063V27.6562V22.9688V22.6187H27.6562H13.5938ZM40.517 13.7107L40.5996 13.9438H40.8469H52.9688C56.6525 13.9438 59.65 16.9413 59.65 20.625V48.2812C59.65 51.965 56.6525 54.9625 52.9688 54.9625H40.8469H40.5997L40.517 55.1955C39.5972 57.7886 37.1209 59.65 34.2188 59.65H7.03125C3.34752 59.65 0.35 56.6525 0.35 52.9688V15.9375C0.35 12.2538 3.34752 9.25625 7.03125 9.25625H8.90625H9.25625V8.90625V0.35H31.9937V8.90625V9.25625H32.3438H34.2188C37.1209 9.25625 39.5973 11.1177 40.517 13.7107ZM13.5938 4.3375H13.2437V4.6875V8.90625V9.25625H13.5938H27.6562H28.0063V8.90625V4.6875V4.3375H27.6562H13.5938ZM45.9375 50.975H46.2875V50.625V18.2812V17.9312H45.9375H41.25H40.9V18.2812V50.625V50.975H41.25H45.9375ZM50.275 50.625V50.975H50.625H52.9688C54.4544 50.975 55.6625 49.7669 55.6625 48.2812V20.625C55.6625 19.1394 54.4544 17.9312 52.9688 17.9312H50.625H50.275V18.2812V50.625ZM13.2437 37.3812V41.3688H9.25625V37.3812H13.2437ZM13.2437 46.2875V50.275H9.25625V46.2875H13.2437ZM22.6187 46.2875V50.275H18.6313V46.2875H22.6187ZM31.9937 31.9937H9.25625V18.6313H31.9937V31.9937ZM22.6187 37.3812V41.3688H18.6313V37.3812H22.6187ZM34.2188 55.6625C35.7044 55.6625 36.9125 54.4544 36.9125 52.9688V15.9375C36.9125 14.4519 35.7044 13.2437 34.2188 13.2437H7.03125C5.54561 13.2437 4.3375 14.4519 4.3375 15.9375V52.9688C4.3375 54.4544 5.54561 55.6625 7.03125 55.6625H34.2188ZM31.9937 37.3812V41.3688H28.0063V37.3812H31.9937ZM31.9937 46.2875V50.275H28.0063V46.2875H31.9937Z" fill="#3A3F6C" stroke="#24527C" stroke-width="0.7"/>
</g>
</g>
<rect id="Rectangle 8" x="11" y="21" width="19" height="9" stroke="#BCBED6" stroke-width="4"/>
</g>
<defs>
<clipPath id="clip0_649_1119">
<rect width="60" height="60" fill="white"/>
</clipPath>
</defs>
</svg>
