<svg width="130" height="130" viewBox="0 0 130 130" fill="none" xmlns="http://www.w3.org/2000/svg">
<g id="analytic 1">
<path id="Vector" opacity="0.6" d="M101.562 81.25C101.562 75.6256 99.8946 70.1275 96.7699 65.451C93.6451 60.7745 89.2038 57.1296 84.0075 54.9772C78.8112 52.8248 73.0934 52.2617 67.5771 53.3589C62.0607 54.4562 56.9937 57.1646 53.0166 61.1417C49.0395 65.1187 46.3311 70.1858 45.2339 75.7021C44.1366 81.2185 44.6998 86.9363 46.8521 92.1326C49.0045 97.3288 52.6494 101.77 57.3259 104.895C62.0024 108.02 67.5005 109.688 73.1249 109.688C80.6644 109.679 87.8927 106.68 93.2239 101.349C98.5551 96.0177 101.554 88.7895 101.562 81.25ZM48.7499 81.25C48.7499 76.4291 50.1795 71.7164 52.8579 67.708C55.5362 63.6995 59.3431 60.5753 63.797 58.7304C68.251 56.8856 73.152 56.4029 77.8803 57.3434C82.6086 58.2839 86.9518 60.6054 90.3607 64.0143C93.7696 67.4232 96.0911 71.7664 97.0316 76.4947C97.9721 81.223 97.4894 86.124 95.6445 90.5779C93.7996 95.0319 90.6754 98.8387 86.667 101.517C82.6585 104.195 77.9459 105.625 73.1249 105.625C66.6625 105.618 60.4669 103.047 55.8972 98.4777C51.3276 93.9081 48.7572 87.7124 48.7499 81.25Z" fill="#8589A5"/>
<path id="Vector_2" d="M93.4374 81.25C93.4374 77.2326 92.2461 73.3054 90.0142 69.965C87.7822 66.6246 84.6098 64.0211 80.8982 62.4837C77.1866 60.9463 73.1024 60.544 69.1622 61.3278C65.2219 62.1116 61.6026 64.0461 58.7618 66.8869C55.9211 69.7277 53.9865 73.347 53.2027 77.2872C52.419 81.2275 52.8212 85.3116 54.3586 89.0233C55.896 92.7349 58.4996 95.9073 61.8399 98.1392C65.1803 100.371 69.1075 101.562 73.1249 101.562C78.5103 101.556 83.6733 99.4144 87.4813 95.6064C91.2893 91.7983 93.4313 86.6353 93.4374 81.25ZM56.8749 81.25C56.8749 80.7113 57.089 80.1946 57.4699 79.8137C57.8508 79.4328 58.3675 79.2188 58.9062 79.2188C59.4449 79.2188 59.9616 79.4328 60.3425 79.8137C60.7234 80.1946 60.9374 80.7113 60.9374 81.25C60.9411 84.4812 62.2263 87.5791 64.5111 89.8639C66.7959 92.1487 69.8937 93.4339 73.1249 93.4375C73.6637 93.4375 74.1803 93.6515 74.5613 94.0324C74.9422 94.4134 75.1562 94.93 75.1562 95.4688C75.1562 96.0075 74.9422 96.5241 74.5613 96.9051C74.1803 97.286 73.6637 97.5 73.1249 97.5C68.8167 97.4952 64.6862 95.7816 61.6398 92.7351C58.5934 89.6887 56.8798 85.5583 56.8749 81.25Z" fill="#DEE0EB"/>
<path id="Vector_3" opacity="0.6" d="M115.781 125.937C116.183 125.937 116.576 125.818 116.91 125.595C117.244 125.372 117.504 125.055 117.658 124.684C117.811 124.312 117.852 123.904 117.773 123.51C117.695 123.116 117.502 122.754 117.218 122.47L97.4852 102.738C96.588 103.754 95.6287 104.713 94.6127 105.61L114.345 125.342C114.533 125.532 114.757 125.682 115.003 125.784C115.25 125.886 115.514 125.938 115.781 125.937Z" fill="#8589A5"/>
<path id="Vector_4" d="M73.125 14.2188H60.9375V51.1235C64.8084 49.5522 68.9473 48.7461 73.125 48.75V14.2188Z" fill="#DEE0EB"/>
<path id="Vector_5" d="M36.5629 30.4688V77.4285L35.7148 78.1066C34.5643 77.3897 33.2071 77.078 31.8591 77.2212C30.5111 77.3643 29.2496 77.9542 28.2754 78.8968L24.3754 76.9478V44.6875H12.1879V84.3253L4.49072 94.2218C4.32486 94.4322 4.20225 94.6733 4.12995 94.9312C4.05764 95.1892 4.03708 95.4589 4.06944 95.7248C4.10179 95.9907 4.18643 96.2476 4.31848 96.4807C4.45053 96.7138 4.62738 96.9185 4.83885 97.0829C5.05032 97.2474 5.29224 97.3684 5.55066 97.4389C5.80908 97.5095 6.07892 97.5283 6.34462 97.4941C6.61033 97.46 6.86666 97.3737 7.09885 97.2401C7.33105 97.1065 7.53452 96.9282 7.69756 96.7157L20.8938 79.7492L26.4544 82.5294C26.3402 83.4408 26.4336 84.3662 26.7274 85.2364C27.0213 86.1066 27.5081 86.8992 28.1514 87.5548C28.7947 88.2104 29.5779 88.712 30.4424 89.0223C31.3069 89.3326 32.2304 89.4434 33.1437 89.3465C34.0571 89.2496 34.9368 88.9475 35.7169 88.4628C36.4971 87.978 37.1576 87.3232 37.649 86.5472C38.1405 85.7712 38.4501 84.8942 38.5549 83.9817C38.6596 83.0692 38.5567 82.1448 38.2539 81.2777L40.681 79.3355C40.7977 77.3392 41.0986 75.358 41.5798 73.417L41.5824 73.4142C42.8427 68.3599 45.3012 63.6832 48.7501 59.7794V30.4688H36.5629ZM32.5004 85.3125C32.1583 85.3128 31.8217 85.2266 31.5218 85.0621C31.2219 84.8976 30.9684 84.66 30.7848 84.3713C30.6013 84.0827 30.4936 83.7523 30.4717 83.411C30.4499 83.0696 30.5146 82.7282 30.6599 82.4185C30.8052 82.1088 31.0263 81.8409 31.3028 81.6394C31.5793 81.438 31.9022 81.3097 32.2415 81.2664C32.5808 81.223 32.9256 81.2661 33.2438 81.3916C33.5621 81.517 33.8435 81.7208 34.0619 81.984C34.0637 81.9863 34.0652 81.9891 34.067 81.9914L34.0873 82.0168C34.326 82.3154 34.4754 82.6754 34.5184 83.0552C34.5615 83.4351 34.4963 83.8194 34.3304 84.1638C34.1646 84.5082 33.9048 84.7988 33.581 85.002C33.2573 85.2052 32.8827 85.3129 32.5004 85.3125Z" fill="#DEE0EB"/>
<path id="Vector_6" d="M123.906 34.5312H115.781C115.243 34.5312 114.726 34.7453 114.345 35.1262C113.964 35.5071 113.75 36.0238 113.75 36.5625C113.75 37.1012 113.964 37.6179 114.345 37.9988C114.726 38.3797 115.243 38.5938 115.781 38.5938H119.43L108.904 50.6228L103.5 49.722C103.249 48.3123 102.511 47.0356 101.414 46.1152C100.317 45.1949 98.9318 44.6895 97.5 44.6875V4.0625H85.3125V51.1235C87.3798 51.9629 91.1737 54.2351 91.1737 54.2351C92.3094 54.9962 93.3962 55.8279 94.4277 56.7252L94.8746 56.2809C96.2762 56.9508 97.8808 57.0598 99.3601 56.5854C100.839 56.1111 102.081 55.0892 102.832 53.7291L109.355 54.8163C109.465 54.8345 109.576 54.8436 109.688 54.8438C109.977 54.8438 110.263 54.7819 110.527 54.6622C110.791 54.5426 111.026 54.368 111.216 54.1501L121.875 41.9684V44.6875C121.875 45.2262 122.089 45.7429 122.47 46.1238C122.851 46.5047 123.368 46.7188 123.906 46.7188C124.445 46.7188 124.962 46.5047 125.343 46.1238C125.723 45.7429 125.938 45.2262 125.938 44.6875V36.5625C125.938 36.0238 125.723 35.5071 125.343 35.1262C124.962 34.7453 124.445 34.5312 123.906 34.5312ZM97.5 52.8125C97.0983 52.8125 96.7055 52.6934 96.3715 52.4702C96.0375 52.247 95.7771 51.9297 95.6234 51.5586C95.4696 51.1874 95.4294 50.779 95.5078 50.385C95.5862 49.9909 95.7796 49.629 96.0637 49.3449C96.3478 49.0609 96.7097 48.8674 97.1037 48.789C97.4977 48.7107 97.9062 48.7509 98.2773 48.9046C98.6485 49.0584 98.9657 49.3187 99.1889 49.6527C99.4121 49.9868 99.5312 50.3795 99.5312 50.7812C99.5306 51.3198 99.3164 51.8361 98.9356 52.2169C98.5548 52.5977 98.0385 52.8119 97.5 52.8125Z" fill="#DEE0EB"/>
</g>
</svg>
