<svg width="57" height="57" viewBox="0 0 57 57" fill="none" xmlns="http://www.w3.org/2000/svg">
<g id="discount 1">
<g id="Group 20">
<path id="Vector" d="M10.6951 28.7453H10.9451V28.4953V4.74921C10.9451 2.26803 12.9632 0.25 15.4443 0.25H41.315H41.565C44.0461 0.25 46.0642 2.26803 46.0642 4.74921V28.4953V28.7453H46.3142H49.8714C51.7462 28.7453 53.3927 29.8748 54.068 31.6226L54.3012 31.5325L54.068 31.6226C54.7431 33.3693 54.2836 35.3111 52.8981 36.5717C52.8978 36.572 52.8974 36.5724 52.897 36.5727L31.5132 55.5868L31.511 55.5887C30.6611 56.3623 29.5889 56.7498 28.5116 56.7498C27.429 56.7498 26.3451 56.358 25.4781 55.5685L25.4758 55.5665L4.13145 36.5919C4.1311 36.5915 4.13074 36.5912 4.13039 36.5909C2.72389 35.3107 2.26539 33.3697 2.94125 31.6227L2.94126 31.6227C3.61769 29.8736 5.26314 28.7453 7.13786 28.7453H10.6951ZM50.0565 33.4123L50.5529 32.9718L49.8892 32.9753L46.3142 32.9945C46.314 32.9945 46.3138 32.9945 46.3136 32.9945C43.8327 32.9941 41.815 30.9762 41.815 28.4953V4.74921V4.49921H41.565H15.4443H15.1943V4.74921V28.4953C15.1943 30.9764 13.1763 32.9945 10.6951 32.9945H7.13786H6.48036L6.97176 33.4313L28.3194 52.409L28.4854 52.5565L28.6515 52.4091L50.0565 33.4123Z" fill="#3A3F6C" stroke="#24527C" stroke-width="0.5"/>
<path id="Vector_2" d="M25.8801 16.6222C25.8801 17.7949 24.9282 18.7468 23.7554 18.7468H22.5681C21.3954 18.7468 20.4435 17.7949 20.4435 16.6222C20.4435 15.4494 21.3954 14.4976 22.5681 14.4976H23.7554C24.9282 14.4976 25.8801 15.4494 25.8801 16.6222Z" fill="#BCBED6" stroke="#24527C" stroke-width="0.5"/>
<path id="Vector_3" d="M33.2539 28.7451H34.4412C35.6139 28.7451 36.5658 29.697 36.5658 30.8697C36.5658 32.0424 35.6139 32.9943 34.4412 32.9943H33.2539C32.0812 32.9943 31.1293 32.0424 31.1293 30.8697C31.1293 29.697 32.0812 28.7451 33.2539 28.7451Z" fill="#BCBED6" stroke="#24527C" stroke-width="0.5"/>
<path id="Vector_4" d="M31.7517 17.4946L31.7518 17.4945C32.58 16.6653 33.9271 16.6652 34.756 17.4945C35.5854 18.3245 35.5854 19.669 34.756 20.4989L25.2576 29.9973L25.2574 29.9975C24.8431 30.4128 24.3002 30.6197 23.7555 30.6197C23.2108 30.6197 22.6678 30.4128 22.2535 29.9975L22.2534 29.9973C21.4239 29.1674 21.4239 27.823 22.2533 26.993C22.2533 26.993 22.2533 26.993 22.2534 26.9929L31.7517 17.4946Z" fill="#BCBED6" stroke="#24527C" stroke-width="0.5"/>
</g>
</g>
</svg>
