<svg width="62" height="62" viewBox="0 0 62 62" fill="none" xmlns="http://www.w3.org/2000/svg">
<g id="money-bag 1" clip-path="url(#clip0_649_1127)">
<g id="Group">
<path id="Vector" d="M43.0338 35.6242L43.0338 35.6242C45.7483 36.5838 47.1948 38.9937 46.7279 41.7696C46.5005 43.1218 45.82 44.3769 44.8121 45.3028L44.8798 45.3765L44.8121 45.3029C44.0586 45.9952 43.1692 46.469 42.1909 46.7084L42.1146 46.727V46.8055V47.9531C42.1146 48.7338 41.4818 49.3668 40.701 49.3668C39.9202 49.3668 39.2873 48.7338 39.2873 47.9531V46.947V46.8549L39.1955 46.8473C37.946 46.7441 36.9182 46.416 35.4461 45.453C34.7927 45.0254 34.6096 44.1492 35.037 43.4961C35.4646 42.8428 36.3407 42.6594 36.994 43.087L36.994 43.087C37.859 43.6529 38.4214 43.9008 39.1741 44.0008L39.2873 44.0159V43.9017V37.2519V37.1877L39.2288 37.161C38.2296 36.7047 37.4893 36.2683 36.8849 35.7941L36.8232 35.8728L36.8849 35.7941C35.6395 34.8173 35.0641 33.1149 35.3977 31.3449C35.7614 29.4153 37.1029 27.884 38.8951 27.3441C39.0019 27.312 39.1076 27.2825 39.2126 27.2552L39.2874 27.2357V27.1584V26.1563C39.2874 25.3756 39.9203 24.7426 40.7011 24.7426C41.4819 24.7426 42.1147 25.3756 42.1147 26.1563V26.9906V27.0753L42.1983 27.0892C43.694 27.3392 44.7454 28.0723 45.2474 28.6483C45.7603 29.237 45.6989 30.1299 45.1103 30.6428C44.5244 31.1531 43.6371 31.0949 43.1231 30.5141L43.1232 30.5141L43.1196 30.5104C43.0758 30.4657 42.7911 30.1918 42.2473 30.0044L42.1147 29.9587V30.0989V35.2213V35.2908L42.1799 35.3151C42.4665 35.4216 42.753 35.5248 43.0338 35.6242ZM39.1343 33.919L39.2874 34.0148V33.8342V30.4154V30.2234L39.1301 30.3334C38.5747 30.7218 38.2759 31.3398 38.1762 31.8685C38.0452 32.5633 38.2081 33.2386 38.6299 33.5695C38.7825 33.6893 38.9531 33.8055 39.1343 33.919ZM42.1147 43.5862V43.7538L42.2622 43.6742C43.2209 43.157 43.7881 42.2037 43.9399 41.3008C43.9941 40.9789 44.0332 40.4272 43.827 39.8616C43.6193 39.2917 43.1655 38.7169 42.252 38.3507L42.1147 38.2957V38.4435V43.5862Z" fill="#BCBED6" stroke="#24527C" stroke-width="0.2"/>
<path id="Vector_2" d="M50.1162 20.7111L50.0177 20.7868L50.1127 20.8668C52.9258 23.2383 55.3158 26.0766 57.2423 29.3402C59.7012 33.5057 61.2878 38.2682 61.8304 43.1122C62.1873 46.2993 61.1603 49.5049 59.0122 51.9072C56.843 54.3329 53.7336 55.7242 50.4816 55.7242H31.1385C30.852 55.7242 30.566 55.7127 30.2809 55.6915L30.1734 55.6834V55.7912V58.8516C30.1734 59.7995 29.4049 60.568 28.457 60.568H6.66016C5.71224 60.568 4.94375 59.7995 4.94375 58.8516V53.4024V53.3024H4.84375H1.81641C0.868494 53.3024 0.1 52.5339 0.1 51.586V44.3203C0.1 43.3724 0.868494 42.6039 1.81641 42.6039H4.84375H4.94375V42.5039V37.0547C4.94375 36.1068 5.71224 35.3383 6.66016 35.3383H21.5105H21.581L21.6047 35.2719C23.6225 29.6238 27.0614 24.6395 31.5109 20.8715L31.6056 20.7913L31.5071 20.7158C30.2299 19.737 29.4047 18.1978 29.4047 16.4688C29.4047 14.6834 30.2848 13.1005 31.6337 12.1279L31.7254 12.0618L31.6486 11.9788C29.4494 9.60472 28.1938 6.47008 28.1938 3.15113C28.1938 2.51807 28.5425 1.93525 29.1005 1.6365C29.6587 1.33766 30.3359 1.36921 30.8624 1.7203L30.9179 1.6371L30.8624 1.7203C33.5941 3.54142 37.1249 3.54142 39.8566 1.7203C40.4332 1.33594 41.1843 1.33594 41.7609 1.7203C44.4925 3.54142 48.0233 3.54142 50.755 1.7203C51.2817 1.36914 51.9589 1.33651 52.5169 1.63504C53.075 1.93382 53.4234 2.51546 53.4234 3.14847C53.4234 6.46948 52.1678 9.60461 49.9686 11.979L49.8918 12.0619L49.9835 12.128C51.3324 13.1005 52.2125 14.6834 52.2125 16.4688C52.2125 18.195 51.3898 19.7321 50.1162 20.7111ZM40.8555 5.17312L40.8086 5.1482L40.7617 5.17312C38.117 6.57823 35.0717 6.8847 32.252 6.09298L32.0696 6.04176L32.1302 6.22126C32.7955 8.19036 34.0944 9.9123 35.8726 11.1027L35.8979 11.1196H35.9283H45.6889H45.7193L45.7445 11.1027C47.5229 9.91218 48.8222 8.18964 49.4873 6.22114L49.548 6.04163L49.3655 6.09286C46.5458 6.8847 43.5003 6.57823 40.8555 5.17312ZM8.47656 38.7711H8.37656V38.8711V42.5039V42.6039H8.47656H26.6406H26.7406V42.5039V38.8711V38.7711H26.6406H8.47656ZM3.53281 49.7696V49.8696H3.63281H21.7969H21.8969V49.7696V46.1367V46.0367H21.7969H3.63281H3.53281V46.1367V49.7696ZM26.6406 57.1352H26.7406V57.0352V53.4024V53.3024H26.6406H8.47656H8.37656V53.4024V57.0352V57.1352H8.47656H26.6406ZM30.1734 52.144V52.2337L30.2626 52.2434C30.5526 52.275 30.8449 52.2914 31.1385 52.2914H50.4816C52.7579 52.2914 54.9344 51.3173 56.4533 49.6188C57.9725 47.92 58.6709 45.7443 58.4188 43.4944C57.4235 34.6085 52.8101 26.7467 45.7331 21.8358L45.7074 21.818H45.6761H35.9397H35.9083L35.8826 21.8359C31.1941 25.0939 27.5085 29.7647 25.3043 35.2007L25.2485 35.3383H25.397H28.457C29.4049 35.3383 30.1734 36.1068 30.1734 37.0547V44.3203C30.1734 45.2682 29.4049 46.0367 28.457 46.0367H25.4297H25.3297V46.1367V49.7696V49.8696H25.4297H28.457C29.4049 49.8696 30.1734 50.6381 30.1734 51.586V52.144ZM46.8633 18.3852C47.9201 18.3852 48.7797 17.5256 48.7797 16.4688C48.7797 15.412 47.9201 14.5524 46.8633 14.5524H34.7539C33.6971 14.5524 32.8375 15.412 32.8375 16.4688C32.8375 17.5256 33.6971 18.3852 34.7539 18.3852H46.8633Z" fill="#3A3F6C" stroke="#24527C" stroke-width="0.2"/>
</g>
</g>
<defs>
<clipPath id="clip0_649_1127">
<rect width="62" height="62" fill="white"/>
</clipPath>
</defs>
</svg>
