<svg width="132" height="132" viewBox="0 0 132 132" fill="none" xmlns="http://www.w3.org/2000/svg">
<g id="web-shop 1">
<g id="Group">
<path id="Vector" d="M123.498 16.5H8.963C4.1125 16.5 0 20.446 0 25.2965V106.832C0 111.692 4.0305 115.5 8.963 115.5H123.498C128.359 115.5 132 111.692 132 106.832V25.2965C132 20.364 128.359 16.5 123.498 16.5ZM30.113 21.5125C31.89 21.5125 33.335 22.958 33.335 24.7345C33.335 26.511 31.8895 27.9565 30.113 27.9565C28.3365 27.9565 26.891 26.511 26.891 24.7345C26.891 22.958 28.336 21.5125 30.113 21.5125ZM20.863 21.5125C22.64 21.5125 24.085 22.958 24.085 24.7345C24.085 26.511 22.6395 27.9565 20.863 27.9565C19.0865 27.9565 17.641 26.511 17.641 24.7345C17.641 22.958 19.086 21.5125 20.863 21.5125ZM11.613 21.5125C13.39 21.5125 14.835 22.958 14.835 24.7345C14.835 26.511 13.3895 27.9565 11.613 27.9565C9.8365 27.9565 8.391 26.511 8.391 24.7345C8.391 22.958 9.836 21.5125 11.613 21.5125ZM124 107.25C124 107.388 124.054 107.5 123.916 107.5H123.666H8.4165H8V107.25V33.5V33.25C8 33.112 8.2785 33 8.4165 33H123.916C124.054 33 124 33.112 124 33.25V107.25ZM120.945 28H85.9445C84.1675 28 82.7225 26.545 82.7225 24.7565C82.7225 22.968 84.168 21.513 85.9445 21.513L120.945 21.524C122.722 21.524 124.166 22.974 124.166 24.757C124.166 26.545 122.721 28 120.945 28Z" fill="#DFE0EC"/>
<g id="Group_2" opacity="0.6">
<path id="Vector_2" d="M19.9442 52.9999H54.9442C56.7212 52.9999 58.1662 51.5433 58.1662 49.7528C58.1662 47.9698 56.7207 46.5183 54.9442 46.5183L19.9442 46.5063C18.1672 46.5063 16.7222 47.9628 16.7222 49.7528C16.7217 51.5433 18.1672 52.9999 19.9442 52.9999Z" fill="#3A3F6C"/>
<path id="Vector_3" d="M54.9442 57.5183L19.9442 57.5063C18.1672 57.5063 16.7222 58.9628 16.7222 60.7528C16.7222 62.5433 18.1677 63.9998 19.9442 63.9998H54.9442C56.7212 63.9998 58.1662 62.5433 58.1662 60.7528C58.1662 58.9693 56.7207 57.5183 54.9442 57.5183Z" fill="#3A3F6C"/>
<path id="Vector_4" d="M54.9442 68.5183L19.9442 68.5063C18.1672 68.5063 16.7222 69.9628 16.7222 71.7528C16.7222 73.5433 18.1677 74.9998 19.9442 74.9998H54.9442C56.7212 74.9998 58.1662 73.5433 58.1662 71.7528C58.1662 69.9693 56.7207 68.5183 54.9442 68.5183Z" fill="#3A3F6C"/>
<path id="Vector_5" d="M54.9442 79.5183L19.9442 79.5063C18.1672 79.5063 16.7222 80.9628 16.7222 82.7528C16.7222 84.5433 18.1677 85.9998 19.9442 85.9998H54.9442C56.7212 85.9998 58.1662 84.5433 58.1662 82.7528C58.1662 80.9693 56.7207 79.5183 54.9442 79.5183Z" fill="#3A3F6C"/>
</g>
<path id="Vector_6" opacity="0.6" d="M109.416 45.5H72.4165C68.97 45.5 66 48.3035 66 51.75V52V88.75V89C66 92.3135 68.853 95 72.1665 95H72.4165H109.166H109.416C112.863 95 115.5 92.1965 115.5 88.75V51.75C115.5 48.3035 112.863 45.5 109.416 45.5Z" fill="#DFE0EC"/>
</g>
</g>
</svg>
