<svg width="59" height="59" viewBox="0 0 59 59" fill="none" xmlns="http://www.w3.org/2000/svg">
<g id="finance 1">
<g id="Group">
<path id="Vector" d="M40.9658 38.3598L40.9143 38.2896C40.2572 37.3947 39.1268 36.9045 37.9382 37.0617L40.9658 38.3598ZM40.9658 38.3598L41.0424 38.3184M40.9658 38.3598L41.0424 38.3184M41.0424 38.3184C42.8167 37.36 45.1327 36.2625 47.4236 35.6766C49.7183 35.0897 51.9636 35.0222 53.6167 36.091C54.5946 36.7231 55.0814 37.9892 55.1527 40.2669M41.0424 38.3184L55.1527 40.2669M43.5416 50.4209C43.5757 50.3868 43.5408 50.4231 43.5409 50.4232C43.5413 50.4236 44.053 49.8976 50.8676 42.9249L50.8682 42.9243C51.5591 42.2054 51.9265 41.2983 51.8973 40.3691L51.7974 40.3722L51.8973 40.3691C51.8686 39.4549 51.7621 38.9839 51.6963 38.7743L51.6831 38.7321L51.6429 38.7136C51.1491 38.485 50.481 38.4447 49.7189 38.533C48.9543 38.6216 48.0827 38.8412 47.1732 39.1451C45.3539 39.753 43.3714 40.7021 41.7696 41.6334L41.7225 41.6607L41.7199 41.7151C41.6192 43.818 40.5101 45.276 38.8456 45.8984L38.8807 45.9921L38.8456 45.8984C36.5937 46.7406 36.4445 46.7626 28.0121 47.9812L28.012 47.9813C27.1255 48.1099 26.2965 47.4956 26.1674 46.6024C26.0388 45.7123 26.6561 44.8864 27.5462 44.7578L27.5758 44.7535C35.7643 43.5701 35.7791 43.5679 37.7049 42.8478C38.0043 42.7359 38.1914 42.569 38.3141 42.2956C38.4316 42.0341 38.4768 41.7009 38.4731 41.3648C38.4694 41.0274 38.4163 40.6787 38.3303 40.3814L38.3063 40.2987L38.221 40.3101L33.6174 40.9228C32.2044 41.1107 30.75 40.9069 29.4107 40.3322C28.6979 40.0263 27.6114 39.5604 25.7649 39.7716C23.6724 40.0105 22.7296 40.1805 22.1484 40.3708C21.8552 40.4667 21.6548 40.5675 21.4482 40.6824C21.4017 40.7082 21.3551 40.7346 21.3072 40.7618C21.1427 40.855 20.9625 40.9571 20.7166 41.0755L20.7165 41.0755C20.3098 41.2714 19.7065 41.4291 19.0316 41.5543C18.3587 41.6791 17.6226 41.7702 16.9546 41.8358L16.8643 41.8447V41.9353V52.9272V53.047L16.9822 53.0256C17.2358 52.9795 17.4713 52.9347 17.6934 52.8924C18.9491 52.6536 19.7797 52.4957 21.0392 52.6394L21.0392 52.6395L21.0437 52.6398L34.9798 53.5931C38.2109 53.8144 41.4119 52.6302 43.5416 50.4209ZM43.5416 50.4209C43.5414 50.4212 43.5412 50.4214 43.5409 50.4216L43.471 50.3517L43.5422 50.4203C43.542 50.4205 43.5418 50.4207 43.5416 50.4209ZM55.1527 40.2669C55.2096 42.0805 54.5205 43.8281 53.2098 45.1883L55.1527 40.2669ZM33.1876 37.6939L37.9381 37.0617L53.2104 45.1862C53.21 45.1857 52.6987 45.7113 45.883 52.6852L45.8826 52.6856C43.1703 55.4964 39.0473 57.136 34.7576 56.8424C30.7265 56.5665 27.8037 56.3627 25.6729 56.2142C23.7045 56.077 22.4119 55.9869 21.5456 55.9304C20.6445 55.8718 20.2013 55.8493 19.9378 55.8484C19.7125 55.8476 19.6147 55.8628 19.483 55.8834C19.4576 55.8873 19.4311 55.8914 19.4021 55.8957L19.4021 55.8956L19.3987 55.8962L16.821 56.3652L16.7592 56.3765L16.7425 56.437C16.35 57.8554 15.0484 58.8999 13.5073 58.8999H7.20111C5.35013 58.8999 3.84408 57.3939 3.84408 55.5429V39.8818C3.84408 38.0308 5.35013 36.5247 7.20111 36.5247H13.5073C14.8761 36.5247 16.0558 37.3489 16.5778 38.5271L16.6072 38.5935L16.6794 38.5861C17.2911 38.5237 17.864 38.4491 18.3237 38.3724C18.7783 38.2966 19.1348 38.2168 19.304 38.1405L19.3041 38.1405L19.3063 38.1394C19.5527 38.0208 19.7518 37.9094 19.9376 37.8055C20.0088 37.7656 20.0781 37.7269 20.1473 37.6892C20.3977 37.5531 20.655 37.4271 21.0218 37.3035C21.7587 37.0553 22.9418 36.8155 25.3953 36.5353C28.1025 36.2261 29.7863 36.9487 30.695 37.3387C31.4938 37.6816 32.3557 37.8049 33.1876 37.6939ZM7.10111 55.5429V55.6429H7.20111H13.5072H13.5073H13.6073V55.5429V39.8819V39.7819H13.5073H7.20111H7.10111V39.8819V55.5429Z" fill="#3A3F6C" stroke="#24527C" stroke-width="0.2"/>
<path id="Vector_2" d="M49.6226 16.4785C49.6226 25.5096 42.2752 32.857 33.2441 32.857C24.213 32.857 16.8656 25.5096 16.8656 16.4785C16.8656 7.4474 24.213 0.1 33.2441 0.1C42.2752 0.1 49.6226 7.4474 49.6226 16.4785ZM46.3656 16.4785C46.3656 9.24315 40.4794 3.35703 33.2441 3.35703C26.0087 3.35703 20.1226 9.24315 20.1226 16.4785C20.1226 23.7139 26.0087 29.6 33.2441 29.6C40.4794 29.6 46.3656 23.7139 46.3656 16.4785Z" fill="#3A3F6C" stroke="#24527C" stroke-width="0.2"/>
<path id="Vector_3" d="M31.631 24.8602V24.9461V25.2508C31.631 26.1501 32.3602 26.8793 33.2595 26.8793C34.159 26.8793 34.888 26.1501 34.888 25.2508V24.7606V24.6887L34.9562 24.6658C36.9313 24.0024 38.196 22.2413 38.4882 20.5023L38.5868 20.5189L38.4882 20.5023C38.891 18.1062 37.5956 15.9435 35.2579 15.1172C34.6532 14.9035 34.0151 14.6674 33.4367 14.413C32.8595 14.1592 32.3357 13.8846 31.963 13.5923L31.631 24.8602ZM31.631 24.8602L31.5461 24.8472M31.631 24.8602L31.5461 24.8472M37.7175 11.8028L37.6289 11.7565C37.2122 12.5536 36.2284 12.8618 35.4311 12.4451C35.3233 12.3887 35.2089 12.31 35.083 12.2234C34.5684 11.8695 33.863 11.3843 32.636 11.7538C31.996 11.9466 31.8332 12.5912 31.7994 12.7704L37.7175 11.8028ZM37.7175 11.8028L37.6289 11.7565C38.0354 10.9788 37.7518 10.0231 36.9975 9.59015L36.9909 9.58638L36.9911 9.58614C36.4001 9.18475 35.8589 8.82265 34.9612 8.57042L34.8883 8.54992V8.47414V8.20703C34.8883 7.30766 34.1591 6.57852 33.2598 6.57852C32.3604 6.57852 31.6312 7.30766 31.6312 8.20703V8.58615V8.65797L31.5632 8.68091C29.9296 9.23161 28.9111 10.6172 28.6101 12.1112C28.3089 13.6061 28.7285 15.1948 29.9531 16.1553L37.7175 11.8028ZM31.5461 24.8472C30.6658 24.7125 29.8902 24.4047 28.8644 23.7336C28.1117 23.2411 27.9008 22.2319 28.3931 21.4795L28.3931 21.4795M31.5461 24.8472L28.3931 21.4795M28.3931 21.4795C28.8856 20.7267 29.8948 20.5157 30.6475 21.0082C31.122 21.3187 31.4521 21.4942 31.8284 21.5877M28.3931 21.4795L31.8284 21.5877M31.8284 21.5877C32.2021 21.6806 32.6149 21.691 33.2491 21.6856L31.8284 21.5877Z" fill="#BCBED6" stroke="#24527C" stroke-width="0.2"/>
</g>
</g>
</svg>
