<svg width="111" height="111" viewBox="0 0 111 111" fill="none" xmlns="http://www.w3.org/2000/svg">
<g id="target 1" clip-path="url(#clip0_649_1170)">
<g id="Group" opacity="0.7">
<g id="Group_2" opacity="0.6">
<path id="Vector" d="M57.8415 53.2639C57.8233 53.2448 57.8181 53.2195 57.7995 53.2008L39.2408 34.6419V22.9806C39.2408 22.1167 38.8978 21.2912 38.2882 20.6813L18.7765 0.953C17.8492 0.0259761 16.4487 -0.256727 15.2323 0.248193C14.0161 0.749861 13.2252 1.93769 13.2252 3.25235V13.0082H3.25253C1.93809 13.008 0.750262 13.7987 0.248594 15.0151C-0.256326 16.2313 0.0231256 17.6288 0.953618 18.5593L20.6821 38.2876C21.292 38.8974 22.1175 39.2404 22.9813 39.2404H34.6426L53.2012 57.7991C53.2199 57.8177 53.2452 57.8229 53.2643 57.8412C54.5304 59.0496 56.4536 59.0656 57.7366 57.8412C59.0877 56.5517 59.0573 54.5376 57.8415 53.2639Z" fill="#8589A5"/>
</g>
</g>
<g id="Group_3">
<g id="Group_4">
<path id="Vector_2" d="M55.4999 0.000732422C47.1791 0.000732422 39.3117 2.11775 32.2272 5.42456L42.2029 15.4002C46.3897 14.008 50.852 13.2253 55.5002 13.2253C78.8099 13.2251 97.7751 32.1905 97.7751 55.5003C97.7751 78.8101 78.8099 97.7755 55.4999 97.7755C32.1899 97.7755 13.2248 78.8103 13.2248 55.5003C13.2248 50.8522 14.0076 46.3898 15.3997 42.2031L5.42397 32.2274C2.1176 39.3121 0.000366211 47.1794 0.000366211 55.5003C0.000366211 85.9839 25.0163 111 55.4999 111C85.9835 111 111 85.9839 111 55.5003C111 25.0167 85.984 0.000732422 55.4999 0.000732422Z" fill="#DEE0EB"/>
</g>
</g>
<g id="Group_5">
<g id="Group_6" opacity="0.6">
<path id="Vector_3" d="M55.5005 26.2327C52.0631 26.2327 48.8112 26.9373 45.7446 28.0306V31.9489L53.2625 39.4668C54.0009 39.3636 54.7341 39.2405 55.5005 39.2405C64.4657 39.2405 71.7602 46.535 71.7602 55.5002C71.7602 64.4654 64.4657 71.76 55.5005 71.76C46.5353 71.76 39.2407 64.4654 39.2407 55.5002C39.2407 54.7337 39.3638 54.0004 39.467 53.2623L31.9494 45.7442H28.031C26.9377 48.8108 26.2331 52.0627 26.2331 55.5C26.2331 71.639 39.3617 84.7674 55.5005 84.7674C71.6392 84.7674 84.768 71.639 84.768 55.5C84.768 39.361 71.6395 26.2327 55.5005 26.2327Z" fill="#8589A5"/>
</g>
</g>
</g>
<defs>
<clipPath id="clip0_649_1170">
<rect width="111" height="111" fill="white"/>
</clipPath>
</defs>
</svg>
