<svg width="105" height="105" viewBox="0 0 105 105" fill="none" xmlns="http://www.w3.org/2000/svg">
<g id="money-transfer 1" clip-path="url(#clip0_649_1203)">
<path id="Vector" opacity="0.4" d="M44.0356 70.0893L35.15 87.5458L35.0026 87.8366L26.2619 105L17.5013 87.7917L17.3755 87.5458L8.48743 70.0893H17.5013V57.4546C19.7771 58.0923 22.1251 58.476 24.5268 58.6033C25.1052 58.6338 25.694 58.6498 26.2739 58.6498C29.2948 58.6498 32.2236 58.2356 35.0026 57.457V70.0893H44.0356Z" fill="#BCBED6"/>
<path id="Vector_2" opacity="0.6" d="M27.6458 0.0373742C13.1701 -0.734072 0.810156 10.3762 0.0379082 24.8518C-0.733538 39.3283 10.3767 51.6906 24.8524 52.4597C39.3312 53.2319 51.6912 42.1209 52.4634 27.6452C53.2325 13.1696 42.1214 0.806417 27.6458 0.0373742ZM31.7089 40.292H29.3409V44.4176H23.1885V40.2928H15.3082V34.1404H31.7089C33.0371 34.1404 34.1169 33.0598 34.1169 31.7324C34.1169 30.405 33.0371 29.3243 31.7097 29.3243H20.7925C16.0725 29.3243 12.232 25.4847 12.232 20.7647C12.232 16.0447 16.0725 12.2043 20.7925 12.2043H23.1885V8.06266H29.3409V12.2043H37.1931V18.3566H20.7925C19.4643 18.3566 18.3844 19.4365 18.3844 20.7647C18.3844 22.0921 19.4651 23.172 20.7925 23.172H31.7097C36.4297 23.172 40.2693 27.0124 40.2693 31.7324C40.2693 36.4524 36.4297 40.292 31.7089 40.292Z" fill="#3A3F6C"/>
<path id="Vector_3" opacity="0.4" d="M96.5957 34.9105H87.545V47.5573C85.2547 46.9116 82.8899 46.5223 80.4722 46.3925C79.8914 46.3621 79.3035 46.3477 78.7251 46.3477C75.6962 46.3477 72.761 46.7658 69.974 47.5477V34.9105H60.9057L66.8081 23.3581L69.8266 17.4541L69.974 17.1633L78.7491 0L83.1487 8.60527L87.545 17.2081L87.5779 17.2714L87.67 17.4541L96.5957 34.9105Z" fill="#BCBED6"/>
<path id="Vector_4" opacity="0.6" d="M80.1446 52.5377C65.669 51.7654 53.309 62.8757 52.5368 77.3521C51.7677 91.831 62.8756 104.19 77.3544 104.962C91.8301 105.731 104.19 94.6212 104.962 80.1447C105.731 65.6691 94.6235 53.3091 80.1446 52.5377ZM84.2085 92.7931H81.8397V96.9187H75.6874V92.7939H67.8071V86.6415L84.2077 86.6407C85.5359 86.6407 86.6158 85.5609 86.6158 84.2335C86.6158 82.9061 85.5359 81.8254 84.2085 81.8254H73.2913C68.5713 81.8254 64.7309 77.9858 64.7309 73.2658C64.7309 68.5458 68.5713 64.7054 73.2913 64.7054H75.6874V60.5638H81.8397V64.7054H89.692V70.8577H73.2913C71.9631 70.8577 70.8833 71.9376 70.8833 73.2658C70.8833 74.5932 71.9639 75.6731 73.2913 75.6731H84.2085C88.9285 75.6731 92.7682 79.5135 92.7682 84.2335C92.7682 88.9535 88.9285 92.7931 84.2085 92.7931Z" fill="#3A3F6C"/>
</g>
<defs>
<clipPath id="clip0_649_1203">
<rect width="105" height="105" fill="white"/>
</clipPath>
</defs>
</svg>
