<svg width="149" height="40" viewBox="0 0 149 40" fill="none" xmlns="http://www.w3.org/2000/svg">
<rect opacity="0.9" width="80.6829" height="39.6623" rx="19.8312" fill="#51C386"/>
<path d="M17.1948 28.1141C15.4018 28.1141 14.0073 27.6614 13.0112 26.7558C12.0151 25.8503 11.5171 24.6007 11.5171 23.0069C11.5171 22.4817 11.5895 21.875 11.7344 21.1868C12.1872 19.0679 13.138 17.3836 14.5868 16.1339C16.0538 14.8843 17.9102 14.2595 20.1559 14.2595C20.9165 14.2595 21.6138 14.3772 22.2477 14.6126C22.8815 14.83 23.3886 15.1197 23.7689 15.4819L25.4532 7.63098H31.5656L27.3005 27.7066H21.4055L21.6228 26.62C21.0433 27.0728 20.3551 27.435 19.5582 27.7066C18.7614 27.9783 17.9735 28.1141 17.1948 28.1141ZM19.8842 23.3872C20.3551 23.3872 20.8079 23.2786 21.2425 23.0613C21.6953 22.8439 22.0665 22.5451 22.3563 22.1648L22.7638 20.2088C22.637 19.8285 22.4016 19.5297 22.0575 19.3124C21.7134 19.095 21.3059 18.9864 20.835 18.9864C20.1106 18.9864 19.5039 19.1765 19.0149 19.5568C18.5259 19.9372 18.1999 20.4895 18.0369 21.214C17.9826 21.4856 17.9554 21.7392 17.9554 21.9746C17.9554 22.4636 18.1003 22.8258 18.3901 23.0613C18.698 23.2786 19.196 23.3872 19.8842 23.3872Z" fill="white"/>
<path d="M31.9684 14.667H37.5918L37.3473 15.7536C38.5788 14.7575 39.9824 14.2595 41.558 14.2595C42.4816 14.2595 43.197 14.3863 43.7041 14.6398C44.2112 14.8752 44.6187 15.2375 44.9266 15.7264C45.5604 15.2737 46.2668 14.9205 47.0455 14.667C47.8424 14.3953 48.6302 14.2595 49.409 14.2595C50.8397 14.2595 51.863 14.5583 52.4787 15.156C53.1126 15.7355 53.4295 16.5776 53.4295 17.6824C53.4295 18.28 53.348 18.932 53.185 19.6383L51.4736 27.7066H45.6329L47.1542 20.5348C47.2085 20.2632 47.2357 20.0368 47.2357 19.8557C47.2357 19.5659 47.1632 19.3486 47.0184 19.2037C46.8735 19.0588 46.629 18.9864 46.2849 18.9864C45.8864 18.9864 45.5242 19.0769 45.1982 19.258L43.4053 27.7066H37.5646L39.1402 20.236C39.1764 19.9824 39.1945 19.8194 39.1945 19.747C39.1945 19.2399 38.9138 18.9864 38.3524 18.9864C37.7366 18.9864 37.1752 19.3305 36.6681 20.0187L35.0382 27.7066H29.1975L31.9684 14.667Z" fill="white"/>
<path d="M56.0039 14.667H61.8989L61.6544 15.7536C62.234 15.3008 62.9222 14.9386 63.7191 14.667C64.5159 14.3953 65.3037 14.2595 66.0825 14.2595C67.7849 14.2595 69.1523 14.7394 70.1846 15.6993C71.2169 16.6591 71.733 17.945 71.733 19.5568C71.733 20.0639 71.6787 20.6073 71.57 21.1868C71.2803 22.5451 70.7369 23.7495 69.9401 24.7999C69.1432 25.8503 68.1562 26.6653 66.979 27.2448C65.8018 27.8244 64.5159 28.1141 63.1214 28.1141C62.3608 28.1141 61.6635 27.9964 61.0296 27.761C60.3958 27.5436 59.8887 27.2539 59.5083 26.8917L58.0685 33.656H51.9834L56.0039 14.667ZM62.4423 23.3872C63.1667 23.3872 63.7734 23.1971 64.2624 22.8168C64.7514 22.4364 65.0774 21.8841 65.2404 21.1596C65.2766 21.0148 65.2947 20.8155 65.2947 20.562C65.2947 20.0368 65.1317 19.6474 64.8057 19.3938C64.4797 19.1222 64.0088 18.9864 63.3931 18.9864C62.9222 18.9864 62.4604 19.095 62.0076 19.3124C61.5729 19.5297 61.2107 19.8285 60.921 20.2088L60.5135 22.1648C60.6402 22.5451 60.8757 22.8439 61.2198 23.0613C61.5639 23.2786 61.9714 23.3872 62.4423 23.3872Z" fill="white"/>
<path d="M87.5538 18.6941H85.8695L86.7389 14.6735H88.396L88.6133 13.6684C89.048 11.6219 89.9354 10.0825 91.2756 9.05017C92.6339 8.01786 94.4812 7.50171 96.8174 7.50171C97.9946 7.50171 98.9364 7.69187 99.6427 8.07219L98.6104 12.9349C98.0852 12.627 97.5056 12.4731 96.8718 12.4731C96.093 12.4731 95.5497 12.6089 95.2418 12.8806C94.952 13.1341 94.7438 13.5778 94.617 14.2117L94.5083 14.6735H97.4423L96.5729 18.6941H93.6662L91.7646 27.7132H85.6522L87.5538 18.6941Z" fill="#444973"/>
<path d="M103.597 28.1207C101.405 28.1207 99.6578 27.6498 98.3538 26.7081C97.0498 25.7663 96.3979 24.4442 96.3979 22.7418C96.3979 22.2528 96.4522 21.7548 96.5608 21.2477C97.0317 19.0744 98.0459 17.372 99.6034 16.1405C101.179 14.8909 103.28 14.266 105.906 14.266C107.971 14.266 109.546 14.746 110.633 15.7058C111.719 16.6476 112.263 17.9063 112.263 19.4819C112.263 19.9166 112.199 20.4508 112.073 21.0847L111.719 22.8505H102.048C102.211 23.3214 102.528 23.6745 102.999 23.91C103.47 24.1454 104.231 24.2631 105.281 24.2631C106.132 24.2631 107.038 24.1997 107.998 24.073C108.976 23.9281 109.818 23.7288 110.524 23.4753L109.736 27.1427C108.958 27.4325 108.016 27.6679 106.911 27.849C105.824 28.0301 104.72 28.1207 103.597 28.1207ZM106.667 19.5091C106.648 19.0925 106.504 18.7665 106.232 18.5311C105.96 18.2775 105.535 18.1508 104.955 18.1508C103.887 18.1508 103.153 18.6035 102.755 19.5091H106.667Z" fill="#444973"/>
<path d="M119.886 28.1207C117.694 28.1207 115.947 27.6498 114.643 26.7081C113.339 25.7663 112.687 24.4442 112.687 22.7418C112.687 22.2528 112.741 21.7548 112.85 21.2477C113.321 19.0744 114.335 17.372 115.892 16.1405C117.468 14.8909 119.569 14.266 122.195 14.266C124.26 14.266 125.835 14.746 126.922 15.7058C128.008 16.6476 128.552 17.9063 128.552 19.4819C128.552 19.9166 128.488 20.4508 128.362 21.0847L128.008 22.8505H118.337C118.5 23.3214 118.817 23.6745 119.288 23.91C119.759 24.1454 120.52 24.2631 121.57 24.2631C122.421 24.2631 123.327 24.1997 124.287 24.073C125.265 23.9281 126.107 23.7288 126.813 23.4753L126.025 27.1427C125.247 27.4325 124.305 27.6679 123.2 27.849C122.113 28.0301 121.009 28.1207 119.886 28.1207ZM122.956 19.5091C122.937 19.0925 122.793 18.7665 122.521 18.5311C122.249 18.2775 121.824 18.1508 121.244 18.1508C120.176 18.1508 119.442 18.6035 119.044 19.5091H122.956Z" fill="#444973"/>
<path d="M134.626 28.1207C132.833 28.1207 131.439 27.6679 130.443 26.7624C129.447 25.8568 128.949 24.6072 128.949 23.0135C128.949 22.4883 129.021 21.8816 129.166 21.1934C129.619 19.0744 130.57 17.3901 132.018 16.1405C133.485 14.8909 135.342 14.266 137.587 14.266C138.348 14.266 139.045 14.3838 139.679 14.6192C140.313 14.8365 140.82 15.1263 141.2 15.4885L142.885 7.63754H148.997L144.732 27.7132H138.837L139.054 26.6266C138.475 27.0793 137.787 27.4415 136.99 27.7132C136.193 27.9849 135.405 28.1207 134.626 28.1207ZM137.316 23.3938C137.787 23.3938 138.239 23.2851 138.674 23.0678C139.127 22.8505 139.498 22.5517 139.788 22.1713L140.195 20.2154C140.069 19.8351 139.833 19.5362 139.489 19.3189C139.145 19.1016 138.737 18.9929 138.267 18.9929C137.542 18.9929 136.935 19.1831 136.446 19.5634C135.957 19.9437 135.631 20.4961 135.468 21.2205C135.414 21.4922 135.387 21.7457 135.387 21.9812C135.387 22.4702 135.532 22.8324 135.822 23.0678C136.129 23.2851 136.628 23.3938 137.316 23.3938Z" fill="#444973"/>
</svg>
