<svg width="198" height="53" viewBox="0 0 198 53" fill="none" xmlns="http://www.w3.org/2000/svg">
<g id="&#208;&#187;&#208;&#190;&#208;&#179;&#208;&#190;">
<rect id="Rectangle 1" opacity="0.9" width="107.217" height="52.7059" rx="26.353" fill="#51C386"/>
<g id="dmp">
<path d="M22.8525 37.3624C20.4699 37.3624 18.6168 36.7608 17.2931 35.5574C15.9694 34.3541 15.3076 32.6935 15.3076 30.5756C15.3076 29.8777 15.4039 29.0715 15.5964 28.1569C16.1981 25.3411 17.4616 23.1029 19.3869 21.4424C21.3363 19.7818 23.8031 18.9515 26.7874 18.9515C27.7982 18.9515 28.7248 19.1079 29.5671 19.4208C30.4094 19.7096 31.0833 20.0946 31.5887 20.576L33.8269 10.1431H41.9494L36.2817 36.8209H28.448L28.7368 35.3769C27.9667 35.9786 27.0521 36.4599 25.9932 36.8209C24.9343 37.1819 23.8874 37.3624 22.8525 37.3624ZM26.4264 31.081C27.0521 31.081 27.6538 30.9366 28.2314 30.6478C28.8331 30.359 29.3264 29.9619 29.7115 29.4565L30.253 26.8573C30.0845 26.3519 29.7717 25.9548 29.3144 25.666C28.8571 25.3772 28.3156 25.2328 27.6899 25.2328C26.7272 25.2328 25.921 25.4855 25.2712 25.9909C24.6214 26.4963 24.1882 27.2304 23.9716 28.193C23.8994 28.554 23.8633 28.891 23.8633 29.2038C23.8633 29.8536 24.0558 30.335 24.4409 30.6478C24.85 30.9366 25.5119 31.081 26.4264 31.081Z" fill="white"/>
<path d="M42.4847 19.493H49.9574L49.6325 20.937C51.269 19.6133 53.1342 18.9515 55.228 18.9515C56.4554 18.9515 57.406 19.1199 58.0799 19.4569C58.7537 19.7697 59.2952 20.2511 59.7043 20.9009C60.5467 20.2992 61.4853 19.8299 62.5201 19.493C63.5791 19.132 64.626 18.9515 65.6608 18.9515C67.5621 18.9515 68.9219 19.3486 69.7401 20.1428C70.5825 20.9129 71.0036 22.032 71.0036 23.5C71.0036 24.2942 70.8953 25.1606 70.6787 26.0992L68.4044 36.8209H60.643L62.6645 27.2905C62.7367 26.9295 62.7729 26.6287 62.7729 26.388C62.7729 26.003 62.6766 25.7142 62.484 25.5216C62.2915 25.3291 61.9666 25.2328 61.5093 25.2328C60.9799 25.2328 60.4986 25.3532 60.0654 25.5938L57.6828 36.8209H49.9213L52.0151 26.8934C52.0632 26.5565 52.0873 26.3399 52.0873 26.2436C52.0873 25.5698 51.7142 25.2328 50.9682 25.2328C50.1499 25.2328 49.4038 25.6901 48.73 26.6046L46.564 36.8209H38.8025L42.4847 19.493Z" fill="white"/>
<path d="M74.4247 19.493H82.2584L81.9335 20.937C82.7036 20.3353 83.6181 19.854 84.6771 19.493C85.736 19.132 86.7829 18.9515 87.8177 18.9515C90.08 18.9515 91.897 19.5892 93.2688 20.8648C94.6406 22.1403 95.3265 23.849 95.3265 25.9909C95.3265 26.6648 95.2543 27.3868 95.1099 28.1569C94.7249 29.9619 94.0029 31.5624 92.9439 32.9582C91.885 34.3541 90.5734 35.4371 89.009 36.2072C87.4447 36.9774 85.736 37.3624 83.8829 37.3624C82.8721 37.3624 81.9455 37.206 81.1032 36.8931C80.2608 36.6043 79.587 36.2193 79.0816 35.7379L77.1683 44.7268H69.0819L74.4247 19.493ZM82.9804 31.081C83.943 31.081 84.7493 30.8283 85.3991 30.3229C86.0489 29.8175 86.482 29.0835 86.6986 28.1208C86.7468 27.9283 86.7709 27.6636 86.7709 27.3266C86.7709 26.6287 86.5543 26.1113 86.1211 25.7743C85.6879 25.4133 85.0621 25.2328 84.2439 25.2328C83.6181 25.2328 83.0044 25.3772 82.4028 25.666C81.8252 25.9548 81.3438 26.3519 80.9588 26.8573L80.4173 29.4565C80.5857 29.9619 80.8986 30.359 81.3559 30.6478C81.8131 30.9366 82.3546 31.081 82.9804 31.081Z" fill="white"/>
</g>
<g id="feed">
<path d="M116.351 24.839H114.113L115.268 19.4962H117.47L117.759 18.1605C118.337 15.441 119.516 13.3953 121.297 12.0235C123.102 10.6517 125.557 9.96582 128.661 9.96582C130.226 9.96582 131.477 10.2185 132.416 10.7239L131.044 17.1858C130.346 16.7767 129.576 16.5721 128.733 16.5721C127.699 16.5721 126.977 16.7526 126.567 17.1136C126.182 17.4505 125.906 18.0402 125.737 18.8825L125.593 19.4962H129.492L128.336 24.839H124.474L121.947 36.8242H113.824L116.351 24.839Z" fill="white"/>
<path d="M137.67 37.3657C134.758 37.3657 132.436 36.7399 130.703 35.4885C128.97 34.237 128.104 32.4802 128.104 30.2179C128.104 29.5681 128.176 28.9063 128.32 28.2324C128.946 25.3444 130.294 23.0821 132.363 21.4456C134.457 19.785 137.249 18.9547 140.739 18.9547C143.482 18.9547 145.576 19.5925 147.02 20.868C148.464 22.1195 149.186 23.7921 149.186 25.8859C149.186 26.4635 149.102 27.1735 148.933 28.0158L148.464 30.3623H135.612C135.829 30.988 136.25 31.4573 136.876 31.7702C137.502 32.0831 138.513 32.2395 139.908 32.2395C141.04 32.2395 142.243 32.1553 143.518 31.9868C144.818 31.7943 145.937 31.5295 146.876 31.1926L145.829 36.0661C144.794 36.4511 143.542 36.764 142.074 37.0047C140.63 37.2453 139.162 37.3657 137.67 37.3657ZM141.749 25.922C141.725 25.3685 141.533 24.9353 141.172 24.6224C140.811 24.2855 140.245 24.117 139.475 24.117C138.055 24.117 137.081 24.7187 136.551 25.922H141.749Z" fill="white"/>
<path d="M159.316 37.3657C156.404 37.3657 154.082 36.7399 152.349 35.4885C150.616 34.237 149.75 32.4802 149.75 30.2179C149.75 29.5681 149.822 28.9063 149.966 28.2324C150.592 25.3444 151.94 23.0821 154.009 21.4456C156.103 19.785 158.895 18.9547 162.385 18.9547C165.128 18.9547 167.222 19.5925 168.666 20.868C170.11 22.1195 170.832 23.7921 170.832 25.8859C170.832 26.4635 170.748 27.1735 170.579 28.0158L170.11 30.3623H157.258C157.475 30.988 157.896 31.4573 158.522 31.7702C159.148 32.0831 160.158 32.2395 161.554 32.2395C162.685 32.2395 163.889 32.1553 165.164 31.9868C166.464 31.7943 167.583 31.5295 168.522 31.1926L167.475 36.0661C166.44 36.4511 165.188 36.764 163.72 37.0047C162.276 37.2453 160.808 37.3657 159.316 37.3657ZM163.395 25.922C163.371 25.3685 163.179 24.9353 162.818 24.6224C162.457 24.2855 161.891 24.117 161.121 24.117C159.701 24.117 158.726 24.7187 158.197 25.922H163.395Z" fill="white"/>
<path d="M178.904 37.3657C176.522 37.3657 174.668 36.764 173.345 35.5607C172.021 34.3573 171.359 32.6968 171.359 30.5789C171.359 29.881 171.456 29.0747 171.648 28.1602C172.25 25.3444 173.513 23.1062 175.439 21.4456C177.388 19.785 179.855 18.9547 182.839 18.9547C183.85 18.9547 184.776 19.1111 185.619 19.424C186.461 19.7128 187.135 20.0979 187.64 20.5792L189.879 10.1463H198.001L192.333 36.8242H184.5L184.788 35.3802C184.018 35.9818 183.104 36.4632 182.045 36.8242C180.986 37.1852 179.939 37.3657 178.904 37.3657ZM182.478 31.0843C183.104 31.0843 183.706 30.9399 184.283 30.6511C184.885 30.3623 185.378 29.9652 185.763 29.4598L186.305 26.8606C186.136 26.3552 185.823 25.9581 185.366 25.6693C184.909 25.3805 184.367 25.2361 183.742 25.2361C182.779 25.2361 181.973 25.4888 181.323 25.9942C180.673 26.4996 180.24 27.2336 180.023 28.1963C179.951 28.5573 179.915 28.8942 179.915 29.2071C179.915 29.8569 180.108 30.3382 180.493 30.6511C180.902 30.9399 181.564 31.0843 182.478 31.0843Z" fill="white"/>
</g>
</g>
</svg>
